<svg width="148" height="30" viewBox="0 0 148 30" fill="none" xmlns="http://www.w3.org/2000/svg">
<path d="M28.1683 5.49426C23.2724 5.49426 19.8828 9.17982 19.8828 13.9233C19.8828 18.7008 23.3066 22.3521 28.3736 22.3521C31.8658 22.3521 34.7075 20.646 35.7345 17.7451H31.8315C31.1811 18.7691 29.9827 19.2467 28.4079 19.2467C25.395 19.2467 23.8543 17.404 23.5118 14.9811H36.1455C36.8301 9.55532 33.5091 5.49441 28.1683 5.49441V5.49426ZM28.2024 8.49723C30.7018 8.49723 32.4136 9.89639 32.6189 12.524H23.5805C23.9913 10.2717 25.532 8.49723 28.2024 8.49723Z" fill="#10618B"/>
<path d="M57.8301 5.49426C55.4677 5.49426 53.6533 6.2791 52.0783 7.8148C50.8799 6.27895 49.0313 5.49426 46.7374 5.49426C44.6147 5.49426 43.1769 6.17669 41.9785 7.26877V5.90375H38.418V21.9427H41.9785V10.9885C43.1426 9.38464 44.6491 8.70205 46.3265 8.70205C48.4151 8.70205 49.9214 9.7257 49.9214 12.5583V21.9427H53.4478V12.5583C53.4478 11.9781 53.4136 11.3979 53.3108 10.886C54.5092 9.28223 56.0156 8.7022 57.5904 8.7022C59.8845 8.7022 61.3908 9.93067 61.3908 12.763V21.9427H64.9172V12.763C64.9172 8.01962 62.0414 5.49441 57.83 5.49441L57.8301 5.49426Z" fill="#10618B"/>
<path d="M76.8366 5.52801C74.7824 5.52801 73.0364 6.14232 71.7011 7.16597V5.90337H68.1406V29.8593H71.7011V20.6796C73.0364 21.7032 74.7826 22.3175 76.8366 22.3175C81.3559 22.3175 85.0193 18.5978 85.0193 13.9228C85.0193 9.24755 81.3558 5.52786 76.8366 5.52786V5.52801ZM76.323 19.2463C74.5427 19.2463 72.8994 18.5638 71.701 16.8576V10.9881C72.8994 9.28169 74.5427 8.59941 76.323 8.59941C79.3016 8.59941 81.4585 11.0565 81.4585 13.9229C81.4585 16.7893 79.3016 19.2463 76.323 19.2463Z" fill="#10618B"/>
<path d="M95.2973 5.01624C90.059 5.01624 86.293 8.66765 86.293 13.6498C86.293 18.7004 90.059 22.4542 95.2973 22.4542C100.536 22.4542 104.302 18.7005 104.302 13.6498C104.302 8.6675 100.536 5.01624 95.2973 5.01624ZM95.3314 17.6767C93.0718 17.6767 91.5654 15.9022 91.5654 13.6841C91.5654 11.5341 93.0719 9.79371 95.3314 9.79371C97.5568 9.79371 99.0633 11.5341 99.0633 13.6841C99.0633 15.9022 97.5568 17.6767 95.3314 17.6767Z" fill="#10618B"/>
<path d="M130.792 5.39157H125.006L122.404 14.1958L119.596 5.39157H115.214L112.407 14.2641L109.805 5.39157H103.984L109.702 21.9423H114.735L117.405 13.4111L120.041 21.9423H125.109L130.792 5.39157Z" fill="#10618B"/>
<path d="M140.911 4.87982C139.131 4.87982 137.659 5.45999 136.324 6.51777V5.39157H130.777V21.9423H136.324V11.5682C137.282 10.4761 138.378 9.89595 139.405 9.89595C141.22 9.89595 142.418 11.022 142.418 13.3767V21.9421H147.999V12.4894C147.999 7.78008 145.123 4.87952 140.911 4.87952V4.87982Z" fill="#10618B"/>
<path fill-rule="evenodd" clip-rule="evenodd" d="M3.00009 4C4.65678 4 6 5.34291 6 7C6 8.65709 4.65696 10 3.00009 10C1.34322 10 0 8.65709 0 7C0 5.34308 1.34304 4 3.00009 4Z" fill="#08A05C"/>
<path d="M17.6099 18.4618C16.7882 18.8031 15.8294 19.0761 14.8708 19.0761C12.885 19.0761 11.721 18.0864 11.721 15.7659V8.87252H17.6783V5.90368H11.721V0H8.16016C8.16016 5.66024 8.16016 10.0204 8.16016 15.766C8.16016 19.8952 10.3515 22.3521 14.4599 22.3521C15.5556 22.3521 16.7196 22.2156 18.1233 21.7038L17.6098 18.4619L17.6099 18.4618Z" fill="#10618B"/>
</svg>
